# xmcd
#
# Track frame offsets:
# 182
# 11512
# 27295
# 61197
# 74332
# 88095
# 99177
# 113310
# 130877
# 144817
# 156782
# 169517
# 194385
# 221935
# 233835
# 246590
#
# Disc length: 3523 seconds
#
#
# Revision: 2
# Processed by: cddbd v1.5.2PL0 Copyright (c) Steve Scherf et al.
# Submitted via: FreeRIP 2.951 
#
DISCID=d10dc110
DTITLE=Various Artist - British Blues Invasion
DYEAR=1993
DGENRE=
TTITLE0=Eric Clapton and The Immediate All Stars - Snake Drive
TTITLE1=Alexis Korner - I'm Your Hoochie Coochie Man
TTITLE2=Fleetwood Mac - Green Manalishi (Live)
TTITLE3=Big Bill Broonzy - Mindin' My Own Business
TTITLE4=Juicy Lucy - Who Do You Love?
TTITLE5=Cyril Davies And The R&B Allstars - Chicago Calling
TTITLE6=Tony McPhere - Ain't Gonna Cry No More
TTITLE7=Savoy Brown Blues Band - Cold Blooded Woman
TTITLE8=Jeremy Spencer - Look Down At My Woman
TTITLE9=The Immediate All Stars and Jeff Beck - Steelin'
TTITLE10=Sonny Terry and Brownie McGee - Black Horse Blues
TTITLE11=Alexis Korner - Get Off My Cloud
TTITLE12=Fleetwood Mac - Black Magic Woman (Live)
TTITLE13=Big Bill Broonzy - St Luis Blues
TTITLE14=Jimmy Page and Eric Clapton and The Immediate All Stars - Freight Loader
TTITLE15=John Mayall and The Bluesbreakers - Telephone Blues
EXTD=
EXTT0=
EXTT1=
EXTT2=
EXTT3=
EXTT4=
EXTT5=
EXTT6=
EXTT7=
EXTT8=
EXTT9=
EXTT10=
EXTT11=
EXTT12=
EXTT13=
EXTT14=
EXTT15=
PLAYORDER=
